<svg xmlns="http://www.w3.org/2000/svg" xmlns:xlink="http://www.w3.org/1999/xlink" width="1440" zoomAndPan="magnify" viewBox="0 0 1080 767.999994" height="1024" preserveAspectRatio="xMidYMid meet" version="1.0"><defs><clipPath id="1cf3f70143"><path d="M 386.398438 230.398438 L 693.898438 230.398438 L 693.898438 537.898438 L 386.398438 537.898438 Z M 386.398438 230.398438 " clip-rule="nonzero"/></clipPath></defs><rect x="-108" width="1296" fill="#ffffff" y="-76.799999" height="921.599993" fill-opacity="1"/><rect x="-108" width="1296" fill="#ffffff" y="-76.799999" height="921.599993" fill-opacity="1"/><g clip-path="url(#1cf3f70143)"><path fill="#000000" d="M 540.148438 230.398438 C 455.394531 230.398438 386.398438 299.394531 386.398438 384.148438 C 386.398438 468.902344 455.394531 537.898438 540.148438 537.898438 C 624.902344 537.898438 693.898438 468.902344 693.898438 384.148438 C 693.898438 299.394531 624.902344 230.398438 540.148438 230.398438 Z M 608.292969 454.421875 C 608.292969 456.765625 606.378906 458.683594 604.035156 458.683594 L 475.839844 458.683594 C 473.496094 458.683594 471.578125 456.765625 471.578125 454.421875 L 471.578125 449.527344 C 471.578125 441.007812 478.394531 434.191406 486.914062 434.191406 L 592.960938 434.191406 C 601.480469 434.191406 608.292969 441.007812 608.292969 449.527344 Z M 608.933594 356.890625 L 542.917969 421.417969 C 542.066406 422.269531 541 422.695312 539.9375 422.695312 C 538.871094 422.695312 537.808594 422.269531 536.957031 421.417969 L 470.941406 356.890625 C 469.664062 355.613281 469.238281 353.910156 469.875 352.207031 C 470.515625 350.503906 472.007812 349.652344 473.921875 349.652344 L 506.929688 349.652344 L 506.929688 313.449219 C 506.929688 303.65625 515.023438 295.5625 524.816406 295.5625 L 554.203125 295.5625 C 564 295.5625 572.09375 303.65625 572.09375 313.449219 L 572.09375 349.652344 L 605.953125 349.652344 C 607.65625 349.652344 609.144531 350.71875 609.996094 352.207031 C 610.847656 353.699219 610.210938 355.828125 608.933594 356.890625 Z M 608.933594 356.890625 " fill-opacity="1" fill-rule="nonzero"/></g></svg>