<svg xmlns="http://www.w3.org/2000/svg" xmlns:xlink="http://www.w3.org/1999/xlink" width="1440" zoomAndPan="magnify" viewBox="0 0 1080 767.999994" height="1024" preserveAspectRatio="xMidYMid meet" version="1.0"><defs><clipPath id="49625735fc"><path d="M 270.707031 182.027344 L 809.207031 182.027344 L 809.207031 586.277344 L 270.707031 586.277344 Z M 270.707031 182.027344 " clip-rule="nonzero"/></clipPath></defs><g clip-path="url(#49625735fc)"><path fill="#211c1d" d="M 741.921875 182.019531 L 293.167969 182.019531 C 280.777344 182.019531 270.734375 192.074219 270.734375 204.480469 L 270.734375 518.898438 L 304.390625 518.898438 L 304.390625 215.707031 L 741.921875 215.707031 Z M 394.671875 350.457031 C 394.671875 378.363281 417.269531 400.988281 445.160156 400.988281 C 473.042969 400.988281 495.640625 378.363281 495.640625 350.457031 C 495.640625 322.554688 473.042969 299.925781 445.160156 299.925781 C 417.269531 299.925781 394.671875 322.554688 394.671875 350.457031 Z M 775.578125 418.964844 L 708.640625 350.457031 L 598.742188 453.996094 L 539.921875 405.375 L 371.703125 552.582031 L 371.703125 283.082031 L 775.578125 283.082031 Z M 338.046875 271.851562 L 338.046875 563.8125 C 338.046875 576.21875 348.089844 586.273438 360.484375 586.273438 L 786.796875 586.273438 C 799.1875 586.273438 809.230469 576.21875 809.230469 563.8125 L 809.230469 271.851562 C 809.230469 259.449219 799.1875 249.394531 786.796875 249.394531 L 360.484375 249.394531 C 348.089844 249.394531 338.046875 259.449219 338.046875 271.851562 " fill-opacity="1" fill-rule="nonzero"/></g></svg>