<svg xmlns="http://www.w3.org/2000/svg" xmlns:xlink="http://www.w3.org/1999/xlink" width="1440" zoomAndPan="magnify" viewBox="0 0 1080 767.999994" height="1024" preserveAspectRatio="xMidYMid meet" version="1.0"><defs><clipPath id="81b963e727"><path d="M 467.425781 230.398438 L 612.925781 230.398438 L 612.925781 537.898438 L 467.425781 537.898438 Z M 467.425781 230.398438 " clip-rule="nonzero"/></clipPath></defs><g clip-path="url(#81b963e727)"><path fill="#ffffff" d="M 579.355469 281.402344 L 612.925781 281.402344 L 612.925781 230.863281 L 570.0625 230.863281 L 570.0625 231.058594 C 513.707031 233.121094 502.089844 264.640625 501.121094 297.96875 L 500.992188 297.96875 L 500.992188 333.035156 L 467.425781 333.035156 L 467.425781 383.632812 L 500.992188 383.632812 L 500.992188 537.433594 L 561.21875 537.433594 L 561.21875 383.632812 L 604.402344 383.632812 L 612.925781 333.035156 L 561.21875 333.035156 L 561.21875 301.640625 C 561.21875 290.488281 568.707031 281.402344 579.355469 281.402344 Z M 579.355469 281.402344 " fill-opacity="1" fill-rule="nonzero"/></g></svg>