<svg xmlns="http://www.w3.org/2000/svg" xmlns:xlink="http://www.w3.org/1999/xlink" width="1440" zoomAndPan="magnify" viewBox="0 0 1080 767.999994" height="1024" preserveAspectRatio="xMidYMid meet" version="1.0"><defs><clipPath id="3189df35dd"><path d="M 568 292 L 693.898438 292 L 693.898438 332 L 568 332 Z M 568 292 " clip-rule="nonzero"/></clipPath><clipPath id="456ae0369a"><path d="M 583 340 L 680 340 L 680 537.898438 L 583 537.898438 Z M 583 340 " clip-rule="nonzero"/></clipPath><clipPath id="779557409e"><path d="M 386.398438 288 L 462 288 L 462 537.898438 L 386.398438 537.898438 Z M 386.398438 288 " clip-rule="nonzero"/></clipPath><clipPath id="ef050eb283"><path d="M 451 230.398438 L 612 230.398438 L 612 537.898438 L 451 537.898438 Z M 451 230.398438 " clip-rule="nonzero"/></clipPath></defs><path fill="#727272" d="M 616.796875 446.398438 L 645.597656 446.398438 L 645.597656 455.996094 L 616.796875 455.996094 Z M 616.796875 446.398438 " fill-opacity="1" fill-rule="nonzero"/><path fill="#727272" d="M 616.796875 489.597656 L 645.597656 489.597656 L 645.597656 499.195312 L 616.796875 499.195312 Z M 616.796875 489.597656 " fill-opacity="1" fill-rule="nonzero"/><g clip-path="url(#3189df35dd)"><path fill="#727272" d="M 573.117188 303.597656 C 570.71875 303.839844 568.796875 306 568.796875 308.398438 L 568.796875 326.398438 C 568.796875 329.039062 570.957031 331.199219 573.597656 331.199219 L 688.796875 331.199219 C 691.433594 331.199219 693.59375 329.039062 693.59375 326.398438 L 693.59375 297.597656 C 693.59375 296.160156 693.117188 294.960938 691.914062 294 C 690.957031 293.039062 689.515625 292.558594 688.316406 292.800781 L 592.796875 301.679688 Z M 683.996094 321.597656 L 578.398438 321.597656 L 578.398438 312.71875 L 683.996094 302.878906 Z M 683.996094 321.597656 " fill-opacity="1" fill-rule="nonzero"/></g><g clip-path="url(#456ae0369a)"><path fill="#727272" d="M 674.394531 537.59375 C 677.035156 537.59375 679.195312 535.433594 679.195312 532.796875 L 679.195312 340.796875 L 583.195312 340.796875 L 583.195312 532.796875 C 583.195312 535.433594 585.355469 537.59375 587.996094 537.59375 Z M 607.195312 355.199219 C 607.195312 352.558594 609.355469 350.398438 611.996094 350.398438 L 650.394531 350.398438 C 653.035156 350.398438 655.195312 352.558594 655.195312 355.199219 L 655.195312 374.398438 C 655.195312 377.039062 653.035156 379.199219 650.394531 379.199219 L 611.996094 379.199219 C 609.355469 379.199219 607.195312 377.039062 607.195312 374.398438 Z M 607.195312 398.398438 C 607.195312 395.757812 609.355469 393.597656 611.996094 393.597656 L 650.394531 393.597656 C 653.035156 393.597656 655.195312 395.757812 655.195312 398.398438 L 655.195312 417.597656 C 655.195312 420.238281 653.035156 422.398438 650.394531 422.398438 L 611.996094 422.398438 C 609.355469 422.398438 607.195312 420.238281 607.195312 417.597656 Z M 607.195312 441.597656 C 607.195312 438.957031 609.355469 436.796875 611.996094 436.796875 L 650.394531 436.796875 C 653.035156 436.796875 655.195312 438.957031 655.195312 441.597656 L 655.195312 460.796875 C 655.195312 463.4375 653.035156 465.597656 650.394531 465.597656 L 611.996094 465.597656 C 609.355469 465.597656 607.195312 463.4375 607.195312 460.796875 Z M 607.195312 484.796875 C 607.195312 482.15625 609.355469 479.996094 611.996094 479.996094 L 650.394531 479.996094 C 653.035156 479.996094 655.195312 482.15625 655.195312 484.796875 L 655.195312 503.996094 C 655.195312 506.636719 653.035156 508.796875 650.394531 508.796875 L 611.996094 508.796875 C 609.355469 508.796875 607.195312 506.636719 607.195312 503.996094 Z M 607.195312 484.796875 " fill-opacity="1" fill-rule="nonzero"/></g><path fill="#727272" d="M 616.796875 403.199219 L 645.597656 403.199219 L 645.597656 412.796875 L 616.796875 412.796875 Z M 616.796875 403.199219 " fill-opacity="1" fill-rule="nonzero"/><path fill="#727272" d="M 616.796875 359.996094 L 645.597656 359.996094 L 645.597656 369.597656 L 616.796875 369.597656 Z M 616.796875 359.996094 " fill-opacity="1" fill-rule="nonzero"/><path fill="#727272" d="M 547.199219 273.597656 C 547.199219 276.238281 549.359375 278.398438 551.996094 278.398438 C 554.636719 278.398438 556.796875 276.238281 556.796875 273.597656 L 556.796875 249.601562 C 556.796875 246.960938 554.636719 244.800781 551.996094 244.800781 C 549.359375 244.800781 547.199219 246.960938 547.199219 249.601562 L 547.199219 261.597656 L 532.796875 261.597656 L 532.796875 271.199219 L 547.199219 271.199219 Z M 547.199219 273.597656 " fill-opacity="1" fill-rule="nonzero"/><path fill="#727272" d="M 591.835938 272.640625 L 611.515625 290.398438 L 624.476562 289.199219 L 598.316406 265.441406 C 595.675781 263.039062 592.078125 261.597656 588.476562 261.597656 L 566.398438 261.597656 L 566.398438 271.199219 L 588.476562 271.199219 C 589.675781 271.199219 590.875 271.679688 591.835938 272.640625 Z M 591.835938 272.640625 " fill-opacity="1" fill-rule="nonzero"/><g clip-path="url(#779557409e)"><path fill="#727272" d="M 396 537.59375 L 461.519531 537.59375 C 461.039062 536.15625 460.800781 534.476562 460.800781 532.796875 L 460.800781 503.996094 C 460.800781 506.636719 458.640625 508.796875 456 508.796875 C 453.359375 508.796875 451.199219 506.636719 451.199219 503.996094 L 451.199219 494.394531 C 451.199219 491.757812 453.359375 489.597656 456 489.597656 C 458.640625 489.597656 460.800781 491.757812 460.800781 494.394531 L 460.800781 470.394531 C 460.800781 473.035156 458.640625 475.195312 456 475.195312 C 453.359375 475.195312 451.199219 473.035156 451.199219 470.394531 L 451.199219 460.796875 C 451.199219 458.15625 453.359375 455.996094 456 455.996094 C 458.640625 455.996094 460.800781 458.15625 460.800781 460.796875 L 460.800781 436.796875 C 460.800781 439.4375 458.640625 441.597656 456 441.597656 C 453.359375 441.597656 451.199219 439.4375 451.199219 436.796875 L 451.199219 427.195312 C 451.199219 424.558594 453.359375 422.398438 456 422.398438 C 458.640625 422.398438 460.800781 424.558594 460.800781 427.195312 L 460.800781 403.199219 C 460.800781 405.835938 458.640625 407.996094 456 407.996094 C 453.359375 407.996094 451.199219 405.835938 451.199219 403.199219 L 451.199219 393.597656 C 451.199219 390.957031 453.359375 388.796875 456 388.796875 C 458.640625 388.796875 460.800781 390.957031 460.800781 393.597656 L 460.800781 369.597656 C 460.800781 372.238281 458.640625 374.398438 456 374.398438 C 453.359375 374.398438 451.199219 372.238281 451.199219 369.597656 L 451.199219 359.996094 C 451.199219 357.359375 453.359375 355.199219 456 355.199219 C 458.640625 355.199219 460.800781 357.359375 460.800781 359.996094 L 460.800781 326.398438 L 458.398438 326.398438 L 458.398438 316.796875 C 458.398438 311.519531 454.078125 307.199219 448.800781 307.199219 L 439.199219 307.199219 L 439.199219 292.800781 C 439.199219 290.160156 437.039062 288 434.398438 288 C 431.757812 288 429.597656 290.160156 429.597656 292.800781 L 429.597656 307.199219 L 420 307.199219 C 414.71875 307.199219 410.398438 311.519531 410.398438 316.796875 L 410.398438 326.398438 L 396 326.398438 C 390.71875 326.398438 386.398438 330.71875 386.398438 336 L 386.398438 527.996094 C 386.398438 533.273438 390.71875 537.59375 396 537.59375 Z M 439.199219 503.996094 C 439.199219 506.636719 437.039062 508.796875 434.398438 508.796875 C 431.757812 508.796875 429.597656 506.636719 429.597656 503.996094 L 429.597656 494.394531 C 429.597656 491.757812 431.757812 489.597656 434.398438 489.597656 C 437.039062 489.597656 439.199219 491.757812 439.199219 494.394531 Z M 439.199219 470.394531 C 439.199219 473.035156 437.039062 475.195312 434.398438 475.195312 C 431.757812 475.195312 429.597656 473.035156 429.597656 470.394531 L 429.597656 460.796875 C 429.597656 458.15625 431.757812 455.996094 434.398438 455.996094 C 437.039062 455.996094 439.199219 458.15625 439.199219 460.796875 Z M 439.199219 436.796875 C 439.199219 439.4375 437.039062 441.597656 434.398438 441.597656 C 431.757812 441.597656 429.597656 439.4375 429.597656 436.796875 L 429.597656 427.195312 C 429.597656 424.558594 431.757812 422.398438 434.398438 422.398438 C 437.039062 422.398438 439.199219 424.558594 439.199219 427.195312 Z M 439.199219 403.199219 C 439.199219 405.835938 437.039062 407.996094 434.398438 407.996094 C 431.757812 407.996094 429.597656 405.835938 429.597656 403.199219 L 429.597656 393.597656 C 429.597656 390.957031 431.757812 388.796875 434.398438 388.796875 C 437.039062 388.796875 439.199219 390.957031 439.199219 393.597656 Z M 439.199219 369.597656 C 439.199219 372.238281 437.039062 374.398438 434.398438 374.398438 C 431.757812 374.398438 429.597656 372.238281 429.597656 369.597656 L 429.597656 359.996094 C 429.597656 357.359375 431.757812 355.199219 434.398438 355.199219 C 437.039062 355.199219 439.199219 357.359375 439.199219 359.996094 Z M 420 316.796875 L 448.800781 316.796875 L 448.800781 326.398438 L 420 326.398438 Z M 405.601562 359.996094 C 405.601562 357.359375 407.757812 355.199219 410.398438 355.199219 C 413.039062 355.199219 415.199219 357.359375 415.199219 359.996094 L 415.199219 369.597656 C 415.199219 372.238281 413.039062 374.398438 410.398438 374.398438 C 407.757812 374.398438 405.601562 372.238281 405.601562 369.597656 Z M 405.601562 393.597656 C 405.601562 390.957031 407.757812 388.796875 410.398438 388.796875 C 413.039062 388.796875 415.199219 390.957031 415.199219 393.597656 L 415.199219 403.199219 C 415.199219 405.835938 413.039062 407.996094 410.398438 407.996094 C 407.757812 407.996094 405.601562 405.835938 405.601562 403.199219 Z M 405.601562 427.195312 C 405.601562 424.558594 407.757812 422.398438 410.398438 422.398438 C 413.039062 422.398438 415.199219 424.558594 415.199219 427.195312 L 415.199219 436.796875 C 415.199219 439.4375 413.039062 441.597656 410.398438 441.597656 C 407.757812 441.597656 405.601562 439.4375 405.601562 436.796875 Z M 405.601562 460.796875 C 405.601562 458.15625 407.757812 455.996094 410.398438 455.996094 C 413.039062 455.996094 415.199219 458.15625 415.199219 460.796875 L 415.199219 470.394531 C 415.199219 473.035156 413.039062 475.195312 410.398438 475.195312 C 407.757812 475.195312 405.601562 473.035156 405.601562 470.394531 Z M 405.601562 494.394531 C 405.601562 491.757812 407.757812 489.597656 410.398438 489.597656 C 413.039062 489.597656 415.199219 491.757812 415.199219 494.394531 L 415.199219 503.996094 C 415.199219 506.636719 413.039062 508.796875 410.398438 508.796875 C 407.757812 508.796875 405.601562 506.636719 405.601562 503.996094 Z M 405.601562 494.394531 " fill-opacity="1" fill-rule="nonzero"/></g><path fill="#727272" d="M 527.996094 362.398438 C 527.996094 359.757812 525.835938 357.597656 523.199219 357.597656 L 499.199219 357.597656 C 496.558594 357.597656 494.398438 359.757812 494.398438 362.398438 L 494.398438 386.398438 C 494.398438 389.039062 496.558594 391.199219 499.199219 391.199219 L 523.199219 391.199219 C 525.835938 391.199219 527.996094 389.039062 527.996094 386.398438 Z M 527.996094 362.398438 " fill-opacity="1" fill-rule="nonzero"/><path fill="#727272" d="M 523.199219 400.796875 L 499.199219 400.796875 C 496.558594 400.796875 494.398438 402.957031 494.398438 405.597656 L 494.398438 429.597656 C 494.398438 432.238281 496.558594 434.398438 499.199219 434.398438 L 523.199219 434.398438 C 525.835938 434.398438 527.996094 432.238281 527.996094 429.597656 L 527.996094 405.597656 C 527.996094 402.957031 525.835938 400.796875 523.199219 400.796875 Z M 523.199219 400.796875 " fill-opacity="1" fill-rule="nonzero"/><path fill="#727272" d="M 527.996094 319.199219 C 527.996094 316.558594 525.835938 314.398438 523.199219 314.398438 L 499.199219 314.398438 C 496.558594 314.398438 494.398438 316.558594 494.398438 319.199219 L 494.398438 343.199219 C 494.398438 345.839844 496.558594 348 499.199219 348 L 523.199219 348 C 525.835938 348 527.996094 345.839844 527.996094 343.199219 Z M 527.996094 319.199219 " fill-opacity="1" fill-rule="nonzero"/><path fill="#727272" d="M 551.996094 405.597656 L 551.996094 429.597656 C 551.996094 432.238281 554.15625 434.398438 556.796875 434.398438 L 573.597656 434.398438 L 573.597656 400.796875 L 556.796875 400.796875 C 554.15625 400.796875 551.996094 402.957031 551.996094 405.597656 Z M 551.996094 405.597656 " fill-opacity="1" fill-rule="nonzero"/><path fill="#727272" d="M 573.597656 357.597656 L 556.796875 357.597656 C 554.15625 357.597656 551.996094 359.757812 551.996094 362.398438 L 551.996094 386.398438 C 551.996094 389.039062 554.15625 391.199219 556.796875 391.199219 L 573.597656 391.199219 Z M 573.597656 357.597656 " fill-opacity="1" fill-rule="nonzero"/><g clip-path="url(#ef050eb283)"><path fill="#727272" d="M 456 300 L 470.398438 300 L 470.398438 532.796875 C 470.398438 535.433594 472.558594 537.59375 475.199219 537.59375 L 574.316406 537.59375 C 573.835938 536.15625 573.597656 534.476562 573.597656 532.796875 L 573.597656 479.996094 C 573.597656 461.515625 558.476562 446.398438 539.996094 446.398438 C 521.519531 446.398438 506.398438 461.515625 506.398438 479.996094 L 506.398438 527.996094 L 480 527.996094 L 480 300 L 562.078125 300 C 564.476562 296.640625 568.078125 294.480469 572.398438 294 L 611.277344 290.398438 L 468.480469 290.398438 L 488.160156 272.640625 C 489.117188 271.679688 490.320312 271.199219 491.519531 271.199219 L 513.597656 271.199219 L 513.597656 273.597656 C 513.597656 276.238281 515.757812 278.398438 518.398438 278.398438 C 521.039062 278.398438 523.199219 276.238281 523.199219 273.597656 L 523.199219 235.199219 C 523.199219 232.558594 521.039062 230.398438 518.398438 230.398438 C 515.757812 230.398438 513.597656 232.558594 513.597656 235.199219 L 513.597656 261.597656 L 491.519531 261.597656 C 487.917969 261.597656 484.320312 263.039062 481.679688 265.441406 L 452.878906 291.597656 C 451.4375 293.039062 450.960938 294.960938 451.679688 296.878906 C 452.160156 298.800781 454.078125 300 456 300 Z M 515.996094 479.996094 C 515.996094 466.796875 526.796875 455.996094 539.996094 455.996094 C 553.199219 455.996094 563.996094 466.796875 563.996094 479.996094 L 563.996094 527.996094 L 515.996094 527.996094 Z M 515.996094 479.996094 " fill-opacity="1" fill-rule="nonzero"/></g><path fill="#727272" d="M 573.597656 340.796875 C 565.675781 340.796875 559.199219 334.320312 559.199219 326.398438 L 559.199219 314.398438 L 556.796875 314.398438 C 554.15625 314.398438 551.996094 316.558594 551.996094 319.199219 L 551.996094 343.199219 C 551.996094 345.839844 554.15625 348 556.796875 348 L 573.597656 348 Z M 573.597656 340.796875 " fill-opacity="1" fill-rule="nonzero"/></svg>